<svg xmlns="http://www.w3.org/2000/svg" viewBox="0 0 317.22 383.95"><defs><style>.cls-1{fill:red;}</style></defs><g id="Слой_2" data-name="Слой 2"><g id="Слой_1-2" data-name="Слой 1"><path class="cls-1" d="M39.63,384l-5.75-1.44A44.13,44.13,0,0,1,.1,341.58C0,340,0,338.33,0,336.71Q0,191.78,0,46.85C0,27.27,8.21,12.48,26.14,4.22A46.93,46.93,0,0,1,45,.21Q147.7-.2,250.44.08c25,0,44.43,19,44.74,43.91s.07,49.75.07,74.62a12.85,12.85,0,0,1-.23,1.48c-1-.78-1.9-1.36-2.7-2-7.85-6.78-15.63-13.64-23.57-20.31a7,7,0,0,1-2.83-6C266,77,266,62.2,266,47.46c0-12.47-5.68-18.18-18.05-18.18q-100.3,0-200.61,0c-12.21,0-18,5.73-18,17.84q0,144.74,0,289.48c0,12.35,5.75,18,18.22,18H247.75c12.61,0,18.22-5.66,18.23-18.39,0-14.12.11-28.25-.08-42.37,0-3.66.85-6.2,3.82-8.6,7.67-6.22,15-12.85,22.46-19.31.82-.7,1.69-1.34,3.08-2.44v3.08c0,24.12.09,48.25,0,72.37-.12,21.56-13.82,38.75-34.56,43.76l-5,1.23Z"/><path class="cls-1" d="M317.22,192c-9.68,8.41-19.1,16.59-28.53,24.76q-39.24,34-78.42,68.09c-3.41,3-6.78,4.1-10.88,2.58-4.34-1.6-6.34-5.2-6.71-9.55-.44-5.22-.59-10.47-.65-15.71-.1-8.48,0-17,0-26H105.71c-11.33,0-17.08-5.72-17.1-17.06q0-27.18,0-54.37c0-11.11,5.82-16.91,16.86-16.91q40.69,0,81.38,0H192c0-1.58,0-3,0-4.43.2-12.61.33-25.22.64-37.83.11-4.3,2.08-7.74,6.24-9.41s7.57-.32,10.91,2.59q52.6,45.8,105.35,91.41C315.72,190.59,316.26,191.11,317.22,192Z"/></g></g></svg>