<svg xmlns="http://www.w3.org/2000/svg" viewBox="0 0 62 62"><defs><style>.cls-1{fill:#b92020;}</style></defs><g id="Слой_2" data-name="Слой 2"><g id="Слой_1-2" data-name="Слой 1"><path class="cls-1" d="M31,62a30.51,30.51,0,0,1-12-2.45,30.33,30.33,0,0,1-16.5-16.5,30.86,30.86,0,0,1,0-24.1A30.33,30.33,0,0,1,19,2.45a30.86,30.86,0,0,1,24.1,0A30.33,30.33,0,0,1,59.55,19a30.86,30.86,0,0,1,0,24.1,30.33,30.33,0,0,1-16.5,16.5A30.51,30.51,0,0,1,31,62ZM45.29,22.34A3.75,3.75,0,0,0,46.5,19.5a4,4,0,0,0-4.06-4.06,3.74,3.74,0,0,0-2.84,1.21l-8.66,8.6-8.6-8.6a3.75,3.75,0,0,0-2.84-1.21,4,4,0,0,0-4.06,4.06,3.75,3.75,0,0,0,1.21,2.84L25.25,31l-8.6,8.6a3.74,3.74,0,0,0-1.21,2.84A4,4,0,0,0,19.5,46.5a3.75,3.75,0,0,0,2.84-1.21l8.6-8.6,8.66,8.6a3.74,3.74,0,0,0,2.84,1.21,4,4,0,0,0,4.06-4.06,3.74,3.74,0,0,0-1.21-2.84L36.69,31Z"/></g></g></svg>