<svg xmlns="http://www.w3.org/2000/svg" viewBox="0 0 598.67 228.34"><defs><style>.cls-1{fill:#fff;}</style></defs><title>Ресурс 1</title><g id="Слой_2" data-name="Слой 2"><g id="Слой_1-2" data-name="Слой 1"><path d="M445.13,64C393.26,38,338.91,40.77,284.17,51c-1.32-4,1.51-5.29,3.34-6.74C322.37,16.66,361.64.85,406.51.45c3.24,0,8.4-1.95,9.31,2.38.78,3.77-4.45,4.85-7.31,6.73C403.28,13,397,15,391.6,21.71A249.25,249.25,0,0,0,425,20.94c17.06-1.26,34.1-4.1,51.32-1.22,6.79,1.14,13.33,2.7,19.3,6.18,1.6.93,3.9,1.86,3.28,4.18s-3.11,1.9-5,2c-7.41.38-14.95-.58-22.14,2.11-2.66,1-6.41,1.4-6.68,4.72-.23,2.9,3.34,3.58,5.5,4.82,8.25,4.72,17.27,7.44,26.49,9.32,29.38,6,51.12,22.76,67.1,47.57,15,23.26,25.67,48.49,34.48,75.85-5.7-.44-8.18-4-11.18-6.5-21.27-17.38-43.87-32.22-71.14-38.6-6.73-1.58-13.57-2.49-20.25-1.58-9.42,1.28-15.78-2.21-22-9-14.89-16.21-32.17-29.36-53.85-35.18-26.16-7-50.77-.34-74.59,10.15-37.55,16.53-71.53,39.32-106,61.19C208.69,176.56,177,195.13,147,216.12c-18.24,12.77-36.7,14-57.14,10.62-43.31-7.15-71.79-32.12-88.24-72.06-2.55-6.19-3.17-10,5.67-8.45C55,154.68,98.41,141,140.53,120.61c28.87-14,57.26-29,86.82-41.58,68-29,137.74-34,209.35-16.73C439.49,63,442.32,63.46,445.13,64Z"/><path class="cls-1" d="M468.82,72.86c-4.08,2.8-7.33.8-10.63-.17C381,49.8,304.89,51.26,230.05,83,195.7,97.52,163.22,116,129.12,131c-37,16.33-75,26.87-116,20.67-8.89-1.34-6,3.61-4,8C24.88,194,51,215.41,88.41,221.46c15.92,2.58,31.91,6.12,47.78-4.38,39.72-26.29,80.28-51.32,120.6-76.7,31.26-19.69,62.37-39.73,97.1-53.06,19.29-7.4,39.09-11.58,59.93-7.9,26.54,4.69,46.54,20.23,64.75,38.79,3.4,3.47,6.39,7.15,12.16,6.75,34.25-2.38,61.94,13.36,88.47,32.26,2.51,1.8,4.28,5,9.38,4.66a352.45,352.45,0,0,0-23.57-51c-16-28.34-38.5-47.55-71.21-53.66a82.16,82.16,0,0,1-28.89-11.14c-7.74-4.86-7.54-9.53.45-14.29,5.59-3.32,12-3.86,18.26-5.28-11.36-2.47-22.6-4-34.37-2.92-18,1.68-36.08,4-54.27,3.21-3.26-.15-6.86-.3-8.16-4s1.63-6.06,4.18-8c3.79-2.85,7.86-5.34,11.81-8-38.55-.28-72.45,12.31-103,35.25C359.49,35.51,417.77,35.07,468.82,72.86Z"/></g></g></svg>