<svg xmlns="http://www.w3.org/2000/svg" viewBox="0 0 479.25 324.86"><defs><style>.cls-1{fill:#fff;}</style></defs><g id="Слой_2" data-name="Слой 2"><g id="Слой_1-2" data-name="Слой 1"><path d="M262.87,157.74c7.81,2.86,16.43,2.28,25.41,6.17-27.14,12.11-54.95,20.37-76.42,41-2.29-2.84-.67-5.25-.11-7.49,2.23-8.92,3.46-17.89,1.17-27-2.83-11.2-10.35-17.6-21.83-18.35a108.14,108.14,0,0,0-15.38.09c-4.81.37-9.56,1.42-14.8,2.24.49-3.83,3.39-4.8,5.47-6.3,12.94-9.27,27-16.62,41.15-23.84,5.19-2.65,10.44-5.27,15.33-8.42,9.18-5.93,10.14-11.46,4-20.44-4.49-6.62-10.37-12-16.1-17.47-1.64-1.57-3.88-2.64-5.09-6.48,9.79-.06,19.12-.4,28.48.65,3.89.44,9.44,2.73,11.27,1,2.7-2.53-1.16-7.11-1.92-10.88a60.79,60.79,0,0,1,.08-25.69c.36-1.58.57-3.58,2.26-4.06,1.87-.53,2.78,1.39,3.69,2.68A150.08,150.08,0,0,0,307.76,84.4c8.66,4.21,15.89,10.57,22.64,17.46-4.58-9.24-12-15.91-20.16-21.85-3.17-2.31-5.76-4.84-6-8.93C303.09,51,302,30.91,309.7,11.67c1.69-4.22,3.1-8.77,6.95-11.67,2.45.79,2,2.76,2.11,4.19C321.5,32,336.39,53.33,355.2,72.59,370,87.77,386.58,101.2,400.72,117.2,397,108,390.91,100.37,384.4,93.09A252.74,252.74,0,0,0,350,61.26a15,15,0,0,1-6.38-11c-1.51-14-.28-27.49,5.92-40.27.84-1.73,1.51-4.65,4.13-3.89,2,.58,1.19,3.24,1.38,5,2.59,23.49,15.23,41.73,30.61,58.5,14.19,15.47,29.94,29.5,42.53,46.42,11,14.72,18.94,30.55,17.91,49.62-.1,1.83-.33,4,1.54,5.1a20.72,20.72,0,0,1,10,13.69c.83,3.58,3.49,2,5.57.85,5.93-3.17,9.42-8.73,13.19-14.2,10.62,18.15-10.21,61.14-34.61,71.75a9.74,9.74,0,0,1-.33-2.62c2.88-18.46-5.6-30.23-24.16-33.2a90.8,90.8,0,0,0-14.6-1.41c-5.78,0-5.84-2.08-3.08-6.07a21.15,21.15,0,0,0,1.93-3.72c3.73-8.56.95-14.49-8-17.18-9.68-2.9-34.93-1.71-49.8,2.57,4.64.86,8.44,1.58,12.25,2.26,4.72.83,6,2.82,2.93,7.09-3.78,5.19-5.32,11.35-6.71,17.52-.92,4.11-.46,6.42,4.88,6.39,11.29-.06,11.24.23,7.7,10.56a61.76,61.76,0,0,0-2.27,8.8c-1.61,8.69,1.77,12.71,10.61,13.22,2.35.14,5.73-1.54,6.82,1.62.89,2.57-1.67,4.68-3.22,6.65-11.4,14.47-35.15,24.51-54.05,22.19,6.48-6.88,15.08-10.82,19.56-19.82-8.18.68-15.49,1.48-22.61.87-.82-1.48,0-2.08.78-2.52C338.1,246,338.7,227.18,334,215.37c-6-14.89-22.53-22.57-40.25-19-4.78,1-9.43,2.57-14.15,3.86-1.7.47-3.59,2.32-5.12.57-1.37-1.56,0-3.55.75-5.19,6.06-12.83,15.63-22.51,27.29-30.3,1.71-1.14,3.46-2.24,6.26-4.05-6.66-2.16-12.31-4-17.95-5.84-1.71-.56-4.18-.56-4.32-2.84-.12-2.06,2.08-2.92,3.61-3.92,9.13-6,19.53-8.72,30-11.28C301,135.33,274.58,144.72,262.87,157.74Z"/><path d="M94,108.91c-3.81-.79-5.45.68-7.28,1.63-1.58.82-3.15,3.14-4.85,1.83-1.94-1.49-.43-3.91.12-5.87A70.05,70.05,0,0,1,98.67,76.91c15.46-16.5,35-26.09,55.87-33.58,9.88-3.55,19.86-6.83,29.74-10.38,2.05-.74,5.09-1.2,5-4.11-.09-2.43-2.93-2.65-4.7-3.63-2.35-1.3-6.82-1-6.73-3.87.12-3.39,4.61-3.22,7.32-4,32.24-8.83,64.22-10.23,96.09,2.37,13.11,5.18,21.51,12.19,18.89,27.79-.87,5.21,0,10.71,0,16.08,0,8.91-.87,9.48-8.88,4.88a123.69,123.69,0,0,1-40.34-37.2c-1.35-1.94-1.87-5.67-5-5-2.51.55-3.1,3.86-4.09,6.2-4,9.35-4.27,19-2.13,28.82,1.82,8.36,1.62,8.32-6.6,7.39-10.91-1.24-21.87-1.79-32.76.35-1.43.28-3.67,0-3.83,2.21-.12,1.57,1.62,2.16,2.74,2.91,7,4.72,13.66,9.83,19.24,16.19,8,9.14,7.07,17.39-3.07,24.05-11.17,7.34-24,11.4-35.72,17.74-9.73,5.27-18.9,11.16-25.47,20.35-1.33,1.86-2.93,3.58-3.25,6.56,9.13-.51,17.77-2.57,26.61-2.11,7.55.4,14.79,1.74,21.61,5.12,4.12,2,5.32,4.26,2.54,8.71-8.42,13.49-9.15,27.68-2.24,42,2.22,4.62,1.95,6.51-3.88,6.79-34.47,1.65-69,2.38-103.38,5.52a124.23,124.23,0,0,0-18.67,2.69c-6.19,1.54-8.85,0-9.85-6.45-2.72-17.67-.73-34.9,3.88-51.93,5-18.35,12.58-35.62,21.86-52.18C91,114.67,92.34,112,94,108.91Z"/><path d="M55.56,309.33c-6.6-3.39-12.75-6.15-18.49-9.59-8.72-5.23-12.46-13.8-13.36-23.44a120.87,120.87,0,0,1,2.64-38.24c1.51-6.61,7.1-9,12.66-10.8,5.82-1.92,11.58-1.32,16.52,2.7,1.91,1.56,2.81,3.58,1.57,6.2-11.21,23.54-12.59,47.29-1.38,71.28C55.81,307.62,55.69,307.89,55.56,309.33Z"/><path d="M41.67,324.86c-10-4.6-20.28-8.44-29-15.2-5.83-4.54-8.4-11-10.19-17.86C.63,284.51,1,277,.15,269.6c-.95-8.18,2.64-13.71,10.1-17.31,1.7-.82,3.47-1.77,5.27-.59,2,1.29,1.13,3.27.9,5.09-2.39,19,1,36.62,12.23,52.45C32.55,314.75,37.31,319.49,41.67,324.86Z"/><path d="M56,270.45c.84-10,2.51-19.07,6-27.85,1.48-3.75,3.59-5.12,7.41-4.28,8.49,1.86,16.12,4.91,19.62,13.82,1,2.43,2,5.16-.12,7.22-9.49,9.11-12.85,21.39-17.54,33-.82,2-.66,5.28-3.46,5.52-2.47.22-3.83-2.39-5.16-4.26C57.64,286.52,56.44,278.26,56,270.45Z"/><path class="cls-1" d="M174.44,147.83c12.82.66,26.22-1.22,35.84,9.86,9.43,10.85,7.55,24.05,5.89,38.3,19.05-14,39.42-21.88,59.25-31.24a123,123,0,0,0-14.35-3.36c-3.81-.77-4.78-2.41-1.73-5.54a59.79,59.79,0,0,1,15.06-11.31c22-11.56,45.35-13.32,69.45-9.55,1.27.2,2.84.45,3,2.73-18.73,1.37-37.38,3.28-54.9,13.9,8.15,4.13,16.56,4.53,24.51,9.24-7.88,4.69-15.15,8.8-21.38,14.37a64.77,64.77,0,0,0-16.31,21.22c21.31-6.19,40.53-7.84,54.07,10.57,11.69,15.89,9.12,32.31-3.46,47.45,3.77,1,6.71.3,9.71-.12,2.38-.33,5.44-2.06,7,.78,1.37,2.51-.73,5-2.32,6.92-3.39,4.09-7.09,7.92-11.18,12.41,17.33-2.82,32.21-8.65,42.88-23.08-16.1-3.11-19.46-8.85-14.75-24.52,2.64-8.79,2.64-9.05-6.39-9.08-5.43,0-6.89-2-6-7.22,1.1-6.26,2.39-12.48,5.51-18,2.95-5.2.83-6.08-3.94-6.93-8-1.41-16.25-.79-24.09-3.37.57-1.91,2.16-2,3.4-2.31,11.86-2.52,23.75-5.26,35.86-5.92,10.19-.56,20.58-1.74,30.57,1.72,9.6,3.32,13.33,9.81,9.64,19-2.78,6.92.31,8,5.75,8.24,1.63.08,3.27.13,4.89.33,18.48,2.26,27.84,11.71,30,30.2a6.49,6.49,0,0,0,.8,1.75c17.82-11.47,32.16-39.65,27.94-55.27-3.88,4-7.79,7.61-12.84,9.74-3.94,1.67-6.55,1.52-7.35-3.64-.69-4.44-2.42-9-6.79-10.89-4.6-2-5.23-5.34-5-9.57.73-13.52-3.2-25.82-10.15-37.25A157.49,157.49,0,0,0,410.9,101c-8.11-8.39-16.24-16.77-24.26-25.24C370.17,58.35,356,39.61,351.57,15c-4,9-4.92,18.08-5.17,27.46-.22,8.18,2.6,13.83,9.16,19.05,23.77,18.93,45.06,40.07,55.86,69.51.91,2.49,3.06,4.79,1.69,8-2.33-.16-3.05-2-4-3.55-6.27-10.51-14.22-19.65-23-28.11C375.09,96.64,363.79,86.15,353,75.18c-15.22-15.43-28.28-32.37-34.25-53.74-1.18-4.23-2-8.56-3.22-13.63A46.44,46.44,0,0,0,310.08,21C306,35.91,307,51.1,307.19,66.26c.07,5.13,2,8.64,6.1,11.77C323,85.44,331.64,94,336.57,105.5c1.3,3,2.94,6.12,1.61,10.28a14.41,14.41,0,0,1-2.59-2c-9.88-13.84-23-23.61-38.07-31.18-18.49-9.3-33.36-23-46-39.2-1.19-1.53-1.89-3.78-4.83-4.14-3.23,14.9.52,28.43,9,43-14.3-7.55-27.45-7.67-41.95-7,6,7.37,12.56,12.46,16.85,19.47,5.6,9.15,4.39,16-4,22.61-4.8,3.82-10.28,6.42-15.71,9.14C198.48,132.74,185.93,138.9,174.44,147.83Z"/><path class="cls-1" d="M85.94,105.19c4.14.61,8.15-2.3,10.55,1.59,2.52,4.08-1.18,7-2.88,10.07a276,276,0,0,0-18.27,39.31c-7.08,19.53-10.79,39.59-8.86,60.42.38,4.12,0,8.92,7.35,7.7,23.49-3.92,47.27-4.87,71-5.75,15.13-.56,30.25-1.58,45.39-2.1,5.2-.18,6.36-1.58,4.35-6.63-4.32-10.85-4-21.89.15-32.81,4.7-12.43,4.18-13.37-9.16-15.81a55.59,55.59,0,0,0-6.95-.65,103,103,0,0,0-27.77,2.65c-1.53.34-3.47,1-4.6-.5s.13-3.15.79-4.57a47.93,47.93,0,0,1,10.56-14.69c10.18-9.63,22.51-15.73,35.11-21.35,7.25-3.23,14.62-6.27,21.22-10.71,8-5.36,8.66-10.58,2.56-18s-14.09-12.86-22-18.26c-1.84-1.25-4.95-2.08-4.57-4.72.42-2.93,3.78-3.13,6.1-3.83,11.19-3.41,22.71-2.45,34.06-1.63,5.82.42,6.84-.9,5.76-6.31a46.23,46.23,0,0,1,5.73-33c3.92-6.78,5.62-6.77,9.8,0C261.44,41.75,274.92,54.39,291,64.4c3.74,2.33,5.9,2.51,5.7-3a186.05,186.05,0,0,1,0-21c.52-6.65-2.4-10.23-8-13.16-24.95-13.15-51.43-15.75-78.84-11.74-7.89,1.15-16,2-23.93,5.79,1.32,1,2,1.55,2.74,2.05,6.83,4.64,6.65,8.24-1,11.71a143.6,143.6,0,0,1-13.79,5C153.59,47,133.28,53.92,115.55,66.61,101.94,76.33,91.46,88.42,85.94,105.19Z"/><path class="cls-1" d="M48.39,300.67c-2.5-11.47-4.73-22.12-3.21-33.17S48,245.34,52.59,235c1.34-3-.85-3.6-2.79-4.44-7.72-3.35-18.72,1.88-20.52,10.08a114.27,114.27,0,0,0-2.05,36.09C28.5,289.35,35.27,297,48.39,300.67Z"/><path class="cls-1" d="M27.68,313.91C14.3,295.44,10.52,276.28,13,255.19c-7.5,3.49-11,8.05-9.39,15.82.83,4.08.74,8.34,1.08,12.52C5.82,297.65,11.7,308.39,27.68,313.91Z"/><path class="cls-1" d="M70.79,242.13c-2.47-.4-4.72-.29-5.59,2.09-5.28,14.42-8.88,29-1.72,43.87.68,1.41,1.16,3.51,3,3.53,2.37,0,2.47-2.45,3.06-4.07,3.44-9.41,7.21-18.66,13.24-26.76,4.38-5.89,4.14-9.14-1.55-13.83C78.1,244.39,74.35,243.16,70.79,242.13Z"/><path d="M404.17,165.37c-11.92-.84-26.05-17.43-25.49-29.72.14-3,1.66-2.8,3.69-2.35,9.36,2.1,23.94,17.94,25.82,27.8C408.88,164.75,407.54,165.87,404.17,165.37Z"/></g></g></svg>