<svg xmlns="http://www.w3.org/2000/svg" viewBox="0 0 782 782"><defs><style>.cls-1{fill:#02004a;}</style></defs><g id="Слой_2" data-name="Слой 2"><g id="Слой_1-2" data-name="Слой 1"><path class="cls-1" d="M391,0C175.06,0,0,175.06,0,391S175.06,782,391,782,782,606.94,782,391,606.94,0,391,0ZM504.53,412.36c0-9-.24-18.06.16-27.07a9.32,9.32,0,0,1,3.54-6.4c16.3-11,38.87-7.63,51.86,7.46a40.19,40.19,0,0,1,.1,52.52c-12.81,15-35.69,18.46-51.86,7.56a10,10,0,0,1-3.62-7C504.28,430.42,504.54,421.39,504.53,412.36Zm26.66-155.89A40.2,40.2,0,1,1,571.63,297c-22.35,0-40.73-18.4-40.44-40.53Zm80.54,238.79c-6.58,24.47-27.25,36.17-51.86,29.65-18.24-4.84-36.46-9.73-55-14.67V468.8l67.73,18.07,73.15-273-273-73.15c-14.6,54.4-29,108.29-43.6,162.51H461.53c26,0,42.91,17,42.92,43.06V623c0,26.06-16.93,43.06-42.91,43.06H184.25c-25.55,0-42.59-17.11-42.6-42.74V346.63c0-26.51,16.8-43.38,43.22-43.38H287.81C291.32,290,294.76,277,298.25,264q17.4-65,34.83-130C340,108,360.42,96,386.37,103q133.35,35.65,266.68,71.43c25.64,6.88,37.39,27.33,30.51,53q-35.85,134-71.83,267.88Zm-156-280.35a40.1,40.1,0,1,1-40.2-40h.11a39.84,39.84,0,0,1,40.14,39.54v.46Z"/><path class="cls-1" d="M182.2,625.52H463.9V343.61H182.2ZM403.55,363.78a40.23,40.23,0,1,1-40.06,40.4v-.32A40.37,40.37,0,0,1,403.55,363.78Zm-80.47,80.67a40.23,40.23,0,1,1-40.26,40.2v-.32a40.38,40.38,0,0,1,40.26-39.88ZM242.4,525.12a40.23,40.23,0,1,1-40.25,40.21V565A40.39,40.39,0,0,1,242.4,525.12Z"/></g></g></svg>